<svg xmlns="http://www.w3.org/2000/svg" xmlns:xlink="http://www.w3.org/1999/xlink" viewBox="0 0 100 100" height="150px" width="150px">
  <title>
    UI5 TODO
  </title>
  <defs>
    <linearGradient id="b">
      <stop offset="0" stop-color="#33b1f7"/>
      <stop offset="1" stop-color="#0f9ee9"/>
    </linearGradient>
    <linearGradient id="a">
      <stop offset="0" stop-color="#2dbbff"/>
      <stop offset="1" stop-color="#0fabef" stop-opacity=".392"/>
    </linearGradient>
    <linearGradient id="c">
      <stop offset="0" stop-color="#006acc"/>
      <stop offset="1" stop-color="#23a6ff"/>
    </linearGradient>
    <linearGradient gradientTransform="matrix(.25458 0 0 .26106 1.583 4.208)" gradientUnits="userSpaceOnUse" y2="1102.275" x2="303.666" y1="789.408" x1="106.743" id="e" xlink:href="#a"/>
    <linearGradient gradientTransform="matrix(.25458 0 0 .26106 1.583 4.208)" gradientUnits="userSpaceOnUse" y2="1108.411" x2="285.797" y1="964.704" x1="216.467" id="f" xlink:href="#b"/>
    <linearGradient y2="204.264" x2="28.054" y1="292.478" x1="79.115" gradientTransform="matrix(.9622 0 0 .9867 1.583 4.208)" gradientUnits="userSpaceOnUse" id="d" xlink:href="#c"/>
  </defs>
  <path fill="#244c7c" d="M0 0h100v100H0z"/>
  <path d="M46.18 296.882c-22.717-1.735-41.643-19.394-43.673-40.748-.213-3.098-.233-6.545.098-9.113 1.64-12.096 7.293-19.114 23.548-29.237 4.773-2.972 7.163-4.614 9.174-6.3l1.103-.906-.247.922c-.553 2.063-1.102 4.057-7.464 9.67-4.222 3.723-7.318 6.803-9.312 9.996-2.114 3.384-3.02 6.888-3.777 11.24-.19 2.183-.074 4.828.29 6.85 1.358 6.745 7.002 14.672 13.808 16.396 1.61.458 3.484.53 4.844.408 4.684-.443 8.197-3.13 9.312-7.123.35-1.55.402-2.78-.035-4.155-.642-1.778-1.787-3.07-3.3-3.798-1.797-.768-3.258-1.065-5.02-.765-.907.157-1.887.574-2.687 1.143l-.645.46-.203-.474c-.525-1.325-.49-2.97-.117-4.128 1.17-3.527 4.97-4.192 11.686-7.517 12.207-4.693 14.314.956 21.325 6.866l.51.472c1.346 1.194 2.972 1.524 4.463 1.43 2.38-.195 4.743-1.374 6.78-3.434 2.028-1.938 3.396-4.944 3.94-7.37.282-.985.29-2.01.36-3.03-.036-.92-.102-1.83-.262-2.737-1.52-8.6-8.748-16.875-21.514-24.632-5.437-3.304-9.478-7.205-10.21-9.857-.08-.284-.107-.418-.02-.41.075.007.236.122.524.338 1.68 1.263 4.563 2.722 10.975 5.556 8.78 3.88 12.487 5.777 16.714 8.554 13.5 8.867 19.87 20.296 20.435 36.675l.064 1.852-.116 1.987c-1.36 23.572-19.295 42.22-43.072 44.78-2.836.313-5.637.318-8.282.14z" fill="url(#d)" transform="translate(0 -197)"/>
  <path d="M93.974 230.55c1.914 15.81-3.134 23.786-10.762 29.883-6.3 5.034-19.596 4.266-24.794-1.16.508 8.718-7.136 17.628-12.82 19.75-9 3.358-21.075 3.493-29.94-4.1-6.044-5.178-15.908-18.22-11.306-35.264-.825 2.264-1.384 4.69-1.747 7.362-.33 2.568-.31 6.015-.098 9.112 2.03 21.354 20.956 39.013 43.673 40.748 2.645.178 5.446.173 8.282-.14 23.777-2.56 41.648-21.212 43.072-44.78.078-1.287.095-2.556.05-3.84-.227-6.612-1.403-12.417-3.61-17.573z" fill="url(#e)" transform="translate(0 -197)"/>
  <path d="M58.418 259.274c1.884 8.435-.227 15.855-3.81 21.865-4.267 7.16-10.623 12.317-14.802 14.805l.05.03c2.067.437 4.178.743 6.324.907 2.645.178 5.446.173 8.282-.14 1.623-.176 3.22-.425 4.785-.747 8.817-1.81 16.663-5.884 22.926-11.59 4.332-3.948 7.906-8.676 10.522-13.975-4.1 1.347-10.482 1.532-16.844.02-6.746-1.604-13.472-5.116-17.432-11.176z" fill="url(#f)" transform="translate(0 -197)"/>
  <path d="M58.418 62.274c6.75 18.357 3.752 27.547.75 36.735 8.865-1.805 16.753-5.898 23.04-11.638-9.58-5.628-17.706-13.667-23.79-25.098z" fill="#24b7f6"/>
  <path d="M57.384 27.406c-1.026 4.363-4.24 7.013-6.918 8.91-4.41 3.125-8.592 4.596-12.682 7.16-2.53 1.587-5.454 4.21-6.124 7.61-.185 1.173.054 2.944.538 3.736 1.994-1.815 5.658-2.065 8.442-2.97 6.767-1.753 12.954-6.358 16.116-12.814 1.336-3.072 2.332-7.64.87-11.09z" fill="#09adf0"/>
  <path d="M65.58 30.91c-3.245 4.984-9.6 7.83-14.144 9.556-3.544 1.345-8.295 2.237-12.423 4.736-2.51 1.518-5.13 3.4-6.53 6.47-.435.956-.59 2.105-.285 3.15 2.285-1.884 4.878-1.897 8.523-1.996l5.28-.144c9.02-.246 14.553-3.973 17.52-8.25 2.248-3.236 2.744-8.478 2.06-13.52z" fill="#09a0ea"/>
  <path d="M69.852 40.178c-5.39 3.865-11.455 4.158-15.927 4.335-3.777.15-8.16-.353-12.602 1.562-2.686 1.158-4.705 2.366-6.216 4.08-.69.783-2.52 3.255-2.91 4.667 2.286-1.884 4.88-1.897 8.524-1.996l5.28-.144c9.02-.246 14.144.123 18.104-2.547 2.49-1.68 5.69-5.58 5.748-9.957z" fill="#0992e4"/>
  <path d="M57.2 37.92c-2.003 1.05-4.017 1.883-5.764 2.546-3.544 1.345-8.295 2.237-12.423 4.736-2.51 1.518-5.13 3.4-6.53 6.47-.435.956-.59 2.106-.285 3.15 1.994-1.815 5.658-2.065 8.442-2.968 6.767-1.755 12.954-6.36 16.116-12.816.154-.354.303-.73.444-1.12z" fill="#08baf4"/>
  <path d="M64.36 42.965c-3.74 1.257-7.443 1.43-10.436 1.548-3.777.15-8.16-.353-12.6 1.562-2.687 1.158-4.706 2.366-6.217 4.08-.69.783-2.52 3.255-2.91 4.667 2.286-1.884 4.88-1.897 8.524-1.996l5.28-.144c9.02-.246 14.553-3.973 17.52-8.25.315-.45.593-.943.84-1.467z" fill="#08a7ec"/>
  <path d="M52.965 44.534c-3.552.057-7.57-.215-11.642 1.54-2.686 1.16-4.705 2.367-6.216 4.082-.69.782-2.52 3.254-2.91 4.666 1.995-1.815 5.66-2.065 8.443-2.968 4.645-1.205 9.017-3.753 12.325-7.32z" fill="#07c0f5"/>
  <path d="M38.052 47.763l2.438-1.36c1.698-.948 2.913-.16 2.942.915.032 1.18-1.237 1.545-2.113 1.312z" fill="#244c7c"/>
  <g style="line-height:1.25" font-size="25.4" font-family="Gill Sans MT" letter-spacing="-1.294" word-spacing="0" fill="#fbfbfb" stroke-width=".7" stroke-linejoin="round" font-weight="bold">
    <path style="line-height:0;-inkscape-font-specification:'Gill Sans MT Bold'" d="M9.906 6.11v2.516H5.64v4.825q0 .87.47 1.378.485.496 1.328.496 1.14 0 2.468-.682v2.666q-1.76.732-3.41.732-2.158 0-3.35-1.116-1.19-1.117-1.19-3.275V8.625H.283v-.72l4.9-5.48h.458v3.683zM16.563 5.873q2.753 0 4.663 1.612 1.922 1.613 1.922 4.49 0 2.89-1.947 4.477-1.946 1.588-4.637 1.588-2.915 0-4.775-1.687-1.848-1.7-1.848-4.403 0-2.753 1.885-4.415 1.897-1.662 4.738-1.662zm0 9.984q2.64 0 2.64-3.98 0-3.81-2.64-3.81-1.266 0-1.985 1.006-.707 1.005-.707 2.877 0 3.907 2.693 3.907zM36.092.49v17.327H32.41v-.943q-1.415 1.166-3.25 1.166-2.345 0-3.92-1.736-1.563-1.737-1.563-4.354 0-2.68 1.588-4.378 1.6-1.7 4.093-1.7 1.55 0 3.05.745V.49zM32.41 14.618V9.023q-1.006-.682-2.06-.682-1.39 0-2.17.97-.77.966-.77 2.715 0 1.612.77 2.592.768.967 2.046.967 1.13 0 2.183-.967zM43.89 5.873q2.753 0 4.663 1.612 1.922 1.613 1.922 4.49 0 2.89-1.947 4.477-1.947 1.588-4.64 1.588-2.913 0-4.774-1.687-1.847-1.7-1.847-4.403 0-2.753 1.885-4.415 1.897-1.662 4.737-1.662zm0 9.984q2.64 0 2.64-3.98 0-3.81-2.64-3.81-1.266 0-1.985 1.006-.707 1.005-.707 2.877 0 3.907 2.69 3.907z"/>
  </g>
</svg>
